@startuml
!define primary_key(x) <b><color:#b8861b><&key></color> x</b>
!define foreign_key(x) <color:#aaaaaa><&key></color> x
!define column(x) <color:#efefef><&media-record></color> x
!define table(x) entity x << (T, white) >>

left to right direction
skinparam roundcorner 5
skinparam shadowing false
skinparam handwritten false
skinparam class {
    BackgroundColor white
    ArrowColor #2688d4
    BorderColor #2688d4
}

title 'ROLE' Lottery Game Service ERD



table( role ) {
    primary_key( id ) : long
    column( name ): varchar
    column( description ): varchar
    column( create_at ) : timestamp
    column( update_at ) : timestamp
}


table( menu_role ) {
    primary_key( menu_id ) : varchar
    primary_key( role_id ) : long
    column( create_at ) : timestamp
    column( update_at ) : timestamp
}

table( role_permission ) {
    primary_key( role_id ) : long
    primary_key( permission_id ) : long
    column( create_at ) : timestamp
    column( update_at ) : timestamp
}


role::id ||--|{ role_permission::role_id
role::id ||--|{ menu_role::role_id


@enduml
